<svg xmlns="http://www.w3.org/2000/svg" width="1280" height="720" viewBox="0 0 1280 720" role="img" aria-label="VRChat Error Whisperer Unity editor preview">
  <rect width="1280" height="720" fill="#2f2f2f"/>
  <rect x="0" y="0" width="1280" height="34" fill="#242424"/>
  <text x="14" y="23" font-family="Arial, sans-serif" font-size="18" fill="#d6d6d6">Error Whisperer</text>
  <g fill="#3b3b3b" stroke="#1f1f1f">
    <rect x="0" y="34" width="210" height="32"/>
    <rect x="210" y="34" width="180" height="32"/>
    <rect x="390" y="34" width="70" height="32"/>
    <rect x="760" y="34" width="135" height="32"/>
    <rect x="895" y="34" width="150" height="32"/>
    <rect x="1045" y="34" width="120" height="32"/>
  </g>
  <g font-family="Arial, sans-serif" font-size="17" fill="#d0d0d0">
    <text x="14" y="55">Analyze Current Console</text>
    <text x="226" y="55">Analyze Text Below</text>
    <text x="406" y="55">Clear</text>
    <text x="778" y="55">Quest target</text>
    <text x="910" y="55">Find Udon Assets</text>
    <text x="1060" y="55">Copy Report</text>
  </g>
  <rect x="8" y="82" width="1264" height="76" rx="4" fill="#3a3a3a" stroke="#1f1f1f"/>
  <g font-family="Arial, sans-serif" fill="#cfcfcf">
    <text x="20" y="108" font-size="15">Error entries</text>
    <text x="20" y="140" font-size="30" font-weight="700">1275</text>
    <text x="275" y="108" font-size="15">Warnings</text>
    <text x="275" y="140" font-size="30" font-weight="700">54</text>
    <text x="525" y="108" font-size="15">Readiness</text>
    <text x="525" y="140" font-size="30" font-weight="700">80/100</text>
    <text x="785" y="108" font-size="15">Upload chance</text>
    <text x="785" y="140" font-size="30" font-weight="700">Medium</text>
  </g>
  <rect x="8" y="170" width="1264" height="66" rx="4" fill="#3a3a3a" stroke="#1f1f1f"/>
  <text x="20" y="199" font-family="Arial, sans-serif" font-size="18" fill="#d0d0d0">100 repeated build errors from stale UdonSharp program asset -> Use the Evidence/Suspect line to locate the broken asset.</text>
  <text x="20" y="224" font-family="Arial, sans-serif" font-size="15" fill="#bdbdbd">1 root cause, 7517 lines scanned, 1311 duplicate/noise lines collapsed.</text>
  <rect x="8" y="250" width="1264" height="340" rx="4" fill="#3a3a3a" stroke="#1f1f1f"/>
  <text x="20" y="280" font-family="Arial, sans-serif" font-size="20" font-weight="700" fill="#d6d6d6">Suspect asset scan</text>
  <text x="20" y="306" font-family="Arial, sans-serif" font-size="16" fill="#cfcfcf">3 possible Udon/UdonSharp asset issues found. Review these paths before deleting or replacing anything.</text>
  <text x="20" y="338" font-family="Arial, sans-serif" font-size="16" font-weight="700" fill="#e0e0e0">Inspect first: Assets/ThirdParty/ExamplePackage/Runtime/ExampleMenu.prefab</text>
  <text x="20" y="364" font-family="Arial, sans-serif" font-size="15" fill="#cfcfcf">Inspect the current open scene first: Assets/Scenes/World.unity. This suspect is likely part of the world you are building now.</text>
  <rect x="20" y="382" width="1240" height="138" rx="4" fill="#424242" stroke="#1f1f1f"/>
  <text x="32" y="412" font-family="Arial, sans-serif" font-size="18" fill="#d8d8d8">Assets/ThirdParty/ExamplePackage/Runtime/ExampleMenu.prefab</text>
  <rect x="1085" y="392" width="62" height="28" rx="4" fill="#555" stroke="#1f1f1f"/>
  <rect x="1154" y="392" width="48" height="28" rx="4" fill="#555" stroke="#1f1f1f"/>
  <rect x="1208" y="392" width="45" height="28" rx="4" fill="#555" stroke="#1f1f1f"/>
  <text x="1098" y="412" font-family="Arial, sans-serif" font-size="16" fill="#e5e5e5">Select</text>
  <text x="1163" y="412" font-family="Arial, sans-serif" font-size="16" fill="#e5e5e5">Ping</text>
  <text x="1216" y="412" font-family="Arial, sans-serif" font-size="16" fill="#e5e5e5">Copy</text>
  <text x="32" y="446" font-family="Arial, sans-serif" font-size="15" font-weight="700" fill="#e0e0e0">Third-party/package asset. Prefer reimporting or updating the package before editing this file directly.</text>
  <text x="32" y="474" font-family="Arial, sans-serif" font-size="15" font-weight="700" fill="#e0e0e0">Likely active in current open scene</text>
  <text x="32" y="502" font-family="Arial, sans-serif" font-size="15" fill="#cfcfcf">Missing serialized Udon program asset reference. Line 10492.</text>
  <text x="32" y="534" font-family="Arial, sans-serif" font-size="15" fill="#cfcfcf">Used by: Assets/Scenes/World.unity</text>
  <rect x="8" y="604" width="1264" height="86" rx="4" fill="#3a3a3a" stroke="#1f1f1f"/>
  <text x="20" y="635" font-family="Arial, sans-serif" font-size="20" font-weight="700" fill="#d6d6d6">Fix first</text>
  <text x="20" y="665" font-family="Arial, sans-serif" font-size="18" fill="#d0d0d0">Repeated build errors from stale UdonSharp program asset</text>
</svg>
